<svg height="64" viewBox="0 0 64 64" width="64" xmlns="http://www.w3.org/2000/svg"><path d="m56.67 22.68c-.19-2.41-1.25-2.56-2.17-2.9s-9-.59-9-.59.2-1.58-.16-2-1.94-.33-1.94-.33.08-1.83.08-3.5-.1-2.81-1.19-3.25-4.93-1.34-12.69-.79-10.79 1.78-11.47 2.66-.66 6.3-.66 6.3a11.5 11.5 0 0 0 -2 .17c-.38.15-.15 1.73-.15 1.73s-6.13 0-6.79.06a1.57 1.57 0 0 0 -1.17 1.38 57.53 57.53 0 0 0 .24 8.05 3.71 3.71 0 0 0 2.22 2.71s.78 17.75 1.15 19.6a3.21 3.21 0 0 0 2.59 2.38c.4.09 1.67.08 9.2.22s23.65.6 25.7.16a4.3 4.3 0 0 0 3.27-3.83c.11-1.5.82-17.25.82-17.25a7.69 7.69 0 0 0 3.06-2.25c.76-1.32 1.24-6.32 1.06-8.73zm-12.49-4.59v.84s-6.5.23-6.5.23 0-.93.11-1a24.36 24.36 0 0 1 3.45-.24c1.76-.07 2.94.01 2.94.17zm-7.46-.61c0 .16-.12 1.87-.12 1.87l-12.26.36c0-.08-.15-1.61-.15-1.61l-1.36-.1s-.22-3.13.46-3.33a58.85 58.85 0 0 1 8.29-1.19c3.45-.21 6.66-.22 6.79 0s.35 3.54.35 3.54a8.89 8.89 0 0 0 -2 .46zm-17.47-5.06c.49-.37 5.74-1.85 10.83-2.22s11.05.27 11.63.88.41 5.71.41 5.71l-2.12.06s-.1-3.75-.5-4.09a4 4 0 0 0 -2-.62c-.68 0-5.44 0-9.17.46s-6.33 1.32-6.47 1.7-.3 3.66-.3 3.66a23.36 23.36 0 0 1 -3 0s.19-5.18.69-5.54zm-2.61 6.83a54.82 54.82 0 0 1 6.63-.14 2.33 2.33 0 0 1 -.05.79l-6.6.17s-.18-.69.02-.82zm33.36 31.62c-.5 1.21-.87 2-2.39 2s-13 .23-23.24-.12-10.26-.33-10.69-.48a2.24 2.24 0 0 1 -1.16-1.35c0-.38-.88-17.89-.88-17.89a34.8 34.8 0 0 0 7 2.31c4.13.88 8.17 1.5 8.17 1.5s0 2.52.07 2.71.18 1.45 2.12 1.45 6.61-.06 7-.1.88-.36.88-.6-.11-3.13-.11-3.13 3.6-.51 7-1.27 7-1.74 7-1.74-.31 15.5-.77 16.71zm-21.4-17.54c.22 0 6.29-.53 6.34-.25s.34 6.17 0 6.22-6.17.15-6.24-.13-.1-5.84-.1-5.84zm25-2.54c-.83.92-4 2-8.71 3s-8 1.69-8 1.69 0-2.45 0-3 0-1.51-2.29-1.4-7.26.64-7.6 1a8.48 8.48 0 0 0 -.43 2.6 66.55 66.55 0 0 1 -9.41-1.65c-4.61-1.21-6.95-2.53-7.53-3.76s-.4-7.27-.4-7.27c.37-.07 15.13-.69 24.09-.93s19.39.38 20.2.44 1.44.89 1.49 2.2-.55 6.17-1.39 7.08zm-10.5 18.83c0-.14-2.34-3.42-2.34-3.42s-.44.29-.63.39l2.2 3.31c.05.1.74-.14.77-.28zm-13.31 1.18c-.19.05-.07.67.09.89s3 0 3.17 0 .1-.54.08-.76a12.06 12.06 0 0 0 -3.34-.13zm10.81.06s-.16.71.06.87a8.49 8.49 0 0 0 2.41 0c.14 0 .1-.67 0-.75a19.92 19.92 0 0 0 -2.47-.12zm-1.75-4.14c-.11 0-.69.47-.75.58s1.9 2.87 1.9 2.87.68-.12.79-.28a18.17 18.17 0 0 0 -1.94-3.17zm-3.85 4.12a3.75 3.75 0 0 0 .08 1 20.46 20.46 0 0 0 3.34 0c.25-.08.13-.76 0-.9a24 24 0 0 0 -3.42-.1zm-20.62-8.84a4.87 4.87 0 0 0 -1.08 0 39.44 39.44 0 0 0 .5 3.95c.18.35.68 0 .93-.09s-.35-3.8-.35-3.86zm30.4 9a3.2 3.2 0 0 0 0 .85 8.74 8.74 0 0 0 2.5-.08.9.9 0 0 0 0-.73c-.14-.26-2.28-.04-2.5-.04zm-29.37-.91c-.32-.07-.3-1.89-.35-2.13s-.76-.05-.93 0c0 0 .26 3 .39 3.19a7 7 0 0 0 2.48-.15c.2-.07 0-.7 0-.84s-1.26-.05-1.59-.11zm30.33-.58c.16-.19-2.69-3.68-2.93-3.71s-.64.47-.64.47 2.56 3.46 2.66 3.54a1.37 1.37 0 0 0 .91-.34zm-31.9-13.11c-.08-.24-.84-.21-.95-.16s.13 3.86.15 4 1 0 1.06-.11a28.27 28.27 0 0 0 -.26-3.73zm32.81 12.08c.17.09.37-.45.4-.61a54.83 54.83 0 0 0 -3.34-4.48c-.11 0-.7.57-.67.66s3.45 4.35 3.61 4.43zm-22.26 2.27c-.17 0-.18.75-.19.86a24.29 24.29 0 0 0 4 .07c.44-.1 0-.73-.06-.84a33.36 33.36 0 0 0 -3.75-.09zm-5.62-.35s-.1.86-.1 1a23.57 23.57 0 0 0 3.42.1c.19-.07.15-.75.1-.92a24.28 24.28 0 0 0 -3.42-.18zm30.23-10.4a24.53 24.53 0 0 0 .14-2.52c0-.24-.62-.1-.81-.05a10.74 10.74 0 0 0 -.12 2.45s.68.24.79.12zm2.1-9.45c-.11 0-2.3.76-2.3.76s.07.57.15.6a10.74 10.74 0 0 0 2.3-.91c.03-.14-.09-.47-.2-.47zm-3.69-4.9c-.16-.08-.78.3-.88.44a29.11 29.11 0 0 0 1.89 2.91c.06.08.66-.2.74-.34a17.63 17.63 0 0 0 -1.8-3.03zm-2.48 1.66c.1.3 1.94 2.73 1.94 2.73a.75.75 0 0 0 .51-.53 9.56 9.56 0 0 0 -1.68-2.7c-.23-.16-.82.48-.82.48zm-2.19 5.46s.06.62.17.68a37.8 37.8 0 0 0 3.93-.75c.08-.08.1-.7-.12-.84a33.65 33.65 0 0 0 -4.03.89zm6.16-8c-.19 0-.55.42-.55.42 0 .38 2.94 4.3 3 4.39s.46-.16.55-.45a24.36 24.36 0 0 0 -3.05-4.38zm2.83-1.24a6.79 6.79 0 0 0 1.39 1.91c.11 0 .22-.22.26-.43a6.36 6.36 0 0 0 -.86-1.81c-.23-.2-.86.15-.84.31zm-2.98 21.34a11 11 0 0 0 0-2.15c0-.24-.5-.28-.67-.2a10.12 10.12 0 0 0 -.05 2.19s.64.29.72.16zm.91-21c.08.13 2.73 4.13 2.73 4.13s.44-.23.44-.5a31.13 31.13 0 0 0 -2.32-4.11c-.13-.07-.91.37-.85.45zm-11.23 9.7a1.35 1.35 0 0 0 .06.81c0 .09 3.47-.73 3.47-.73s0-.49-.15-.57-3.01-.08-3.38.49zm8.65 11.72c.33.14.31-.29.34-.51a27 27 0 0 0 -2.55-3.37c-.08 0-.66.52-.64.61a26.56 26.56 0 0 0 2.85 3.27zm.36-3.29c.18.06.22-.49.2-.68s-1.2-1.79-1.53-1.83-.56.59-.56.59a25.88 25.88 0 0 0 1.89 1.92zm1.13 5.75c0-.27-.42-.28-.56-.25a10.06 10.06 0 0 0 -.24 1.89 2 2 0 0 0 .62.23 6.36 6.36 0 0 0 .18-1.91zm-35.57-17.52c-1.33-.6-1.48-1.13-1.6-1.06s-.55.6-.51.81 0 0 1.16.72a7.47 7.47 0 0 0 3.16 1.05c.24-.08.13-.45.05-.61s-.95-.31-2.26-.91zm-1.57-3.13c.45-.07-.06-2.61-.14-2.82s-.72-.12-.65 0-.1 2.52 0 2.85.36.04.79-.03zm5.65 4.3s-.26.62-.1.73a22.35 22.35 0 0 0 3.32.81c.25 0 .15-.59.08-.73s-3.14-.75-3.3-.81zm4.75 1.12c-.21 0-.09.73-.09.73a29.78 29.78 0 0 0 3.05.56c.17-.08.09-.48 0-.65a22.19 22.19 0 0 0 -2.96-.64z" fill="#fff"/></svg>