<svg viewBox="0 0 64 64" xmlns="http://www.w3.org/2000/svg"><path d="m34.66 16.61c-.27.21-13.57 29.87-13 30.47s4.29.55 4.94.23 14-30.19 14.06-30.52-5.66-.46-6-.18zm-9.17 29a5.16 5.16 0 0 1 -2 .11l12.36-27.48c.22 0 2.44-.21 2.39.12s-12.24 26.99-12.75 27.26zm-9.83-25.61c-.5.13-12.24 11.91-12.28 12.48s10.31 10.65 10.69 11 6.18.33 6.41-.71-9.68-10.1-9.68-10.1 10.2-11.23 10.37-12.11-5.02-.67-5.51-.56zm-7.21 12.46c.2.29 9.42 9.62 9.42 9.62l-2.63.15-9.52-9.74s9.93-10.81 10.28-10.84a9.93 9.93 0 0 1 2.45.06c-.09.16-10.2 10.47-10 10.75zm40-11.91c-.49-.13-5.73-.39-5.52.5s10.27 12.19 10.27 12.19-10 9-9.76 10 6 1.11 6.41.76 10.8-10.4 10.77-10.88-11.69-12.44-12.19-12.57zm.26 22.21-2.62-.17s9.28-9.27 9.48-9.55-9.84-10.66-9.9-10.82a9.6 9.6 0 0 1 2.45 0c.32 0 10.18 10.91 10.18 10.91z" fill="#fff"/></svg>