<svg viewBox="0 0 64 64" xmlns="http://www.w3.org/2000/svg">
    <path d="M55.41 18.31c-.16-2.28-1.3-3.26-3.2-3.26S13 14.56 11 14.61a2.55 2.55 0 0 0-2.5 2.83c.05 1.84.22 26.33.27 29s1.58 2.45 2.12 2.61 2.33.22 9 .27 28.56.11 31.44.06 3.53-1.14 3.69-1.74a59 59 0 0 0 .43-8.15c.02-4.68.13-18.9-.04-21.18zm-2 17.79c-.2 6.64.33 10.67-1.06 11.12s-10.34.65-19.91.53-19.83 0-20.93-.49-1.26-1.5-1.31-3-.16-21.14-.16-23.62.29-4.24.94-4.24 14.74.29 22.15.29 18.94 0 19.71.69.8 12.09.59 18.72zm-37-11.52c.32 0 .7-.41.73-.68a69.29 69.29 0 0 0-5.87-5.9c-.19 0-.5.6-.46.7a50.63 50.63 0 0 0 5.62 5.88zm-4.35 4.34a1.86 1.86 0 0 0 1.12-.13 43.91 43.91 0 0 0 .16-4.54 7.7 7.7 0 0 0-1.3-.19 41 41 0 0 0 .04 4.86zm5.24 11.3c-.13 0-5.59 4.62-5.72 4.91s.43.92.62.9 5.7-4.67 5.78-4.86-.52-.95-.66-.95zm24.14 4.1c-.24 0-.76.65-.76.65a19.48 19.48 0 0 0 2.77 2.31 1.26 1.26 0 0 0 .6-.33 19 19 0 0 0-2.59-2.63zm2.17-.76c-.16 0-.87.65-.79.78A28.8 28.8 0 0 0 46.46 47a.83.83 0 0 0 .54-.27 24.61 24.61 0 0 0-3.37-3.17zm-1-4.56c-.19 0-.81.73-.7.86.29.38 8.33 7 8.41 7a2.82 2.82 0 0 0 .9-.89c.07-.19-8.35-6.97-8.54-6.97zm4.64.29c-.29-.08-.84.6-.78.68A55.07 55.07 0 0 0 51 44.21a.76.76 0 0 0 .4-.52 33.17 33.17 0 0 0-4.08-4.4zM49 38c-.11 0-.81.47-.74.62s3.83 4.08 3.94 4.08.38-.46.35-.6S49.12 38 49 38zm1-1.52c-.16 0-.63.65-.63.65a17.85 17.85 0 0 0 2.67 2.53c.21 0 .27-.44.29-.6A15.06 15.06 0 0 0 50 36.47zm.62-1.55c-.13 0-.54.65-.54.65a15.71 15.71 0 0 0 2 1.74c.08 0 .3-.46.3-.62a9.57 9.57 0 0 0-1.72-1.78zm-7.25-9.64c.17.06 8-5.78 8.18-6s-.47-.84-.68-1-8 5.77-8.09 6 .47.94.63.99zm-2.3.6c-2.15-4-7-6-11.08-5.86-5.54.19-10.21 4-11.38 8.41s-.48 9.32 2.86 12.25 9.2 3.58 12.16 3.09a11.28 11.28 0 0 0 5.67-3.23c.17-.24-1-1.65-1.08-1.68s-.25.19-1.2.92a11.87 11.87 0 0 1-3.5 2A12.79 12.79 0 0 1 23.7 40c-3.88-2.61-4.48-8.31-2.9-12s6.52-6.87 12-6.11a9 9 0 0 1 7.84 8.93 5.25 5.25 0 0 1-3.55 5c-.76 0-1.39-1.06-1.44-1.44s0-4.75-.08-4.94-1.88-.25-1.88-.25a5.34 5.34 0 0 0-5.13-1 4.63 4.63 0 0 0-3.26 5.92 5.46 5.46 0 0 0 5.73 3.07c2.45-.41 3.07-1.6 3.07-1.6a5.13 5.13 0 0 0 .76 1.14c.52.59 2.28 1.73 4.72-.06s3.67-6.81 1.53-10.78zm-7.93 6.71a2.89 2.89 0 0 1-4.78 1.63c-2.28-1.85-.62-4.86 2.39-4.65a2.69 2.69 0 0 1 2.43 3.01z"/>
</svg>
