<svg viewBox="0 0 64 64" xmlns="http://www.w3.org/2000/svg">
    <path d="M17.64 20.33a40.54 40.54 0 0 0-4.09 2.13c-.19.18-.19.37.06.56s2.88 1.69 3.09 1.78 1.13-.72 1.13-.84-2.41-1.16-2.44-1.25 2.81-1.5 2.94-1.66-.47-.69-.69-.72zm3.1 11.47c-3.29 3.25-2.32 5.94-2.32 6.09s1.25-.25 1.28-.37a19.7 19.7 0 0 1 .3-2.13 16.16 16.16 0 0 1 1.54-3.09s-.71-.6-.8-.5zm36.9-9.66c-.37-.25-23.9-11.43-24.53-11.75a1.57 1.57 0 0 0-1.44 0c-.31.16-25 11.59-25.53 12a1.35 1.35 0 0 0 0 1.85c.22.12 12.72 5.25 12.72 5.25a18.46 18.46 0 0 0-3.15 5.09c-1.38 3.22-.72 7.81-.44 8.62a1.81 1.81 0 0 0 2 1c.44-.25 2.69-3.56 6.53-4.37s5.81 1.72 6.59 1.81 2.6-1.81 4.91-2.47 5.16.41 6.94 1.75 4.34 4.31 4.78 4.16 2.18-3.5 2.31-8.08A11.44 11.44 0 0 0 47 29.55s5-2.78 5.12-2.75.44 9.09.44 9.09a3.13 3.13 0 0 0-2.5 2.41 3.58 3.58 0 0 0 .62 2.78c0 .09-.56 11.22-.46 11.44s.93 1.31 3.15 1.28 3.53-1.19 3.69-1.63-1.26-11.09-1.26-11.09.34-.06.84-2.25-2.72-3-2.84-3-.53-9.53-.53-9.53a42.35 42.35 0 0 0 4.81-2.3c.37-.48-.08-1.61-.44-1.86zM47.36 35.8c.09.28.19.94.09.94s-2.46-2-2.65-2-.35.68-.31.81 3 2.34 3 2.47a6.22 6.22 0 0 1-.25 1.44c-.1 0-2.82-2.79-3-2.79s-.63.72-.5.79 3.31 3 3.31 3.09-.63 1.75-.63 1.75-3.28-4-7.22-5-5.68.56-7.06 1.16-1.5.75-1.65.68a8 8 0 0 0-6.32-1.12c-3.87.81-7.09 4-7.12 3.91a10.58 10.58 0 0 1 .09-5.82c1-2.81 2.44-5.28 3.28-5.75.21-.11 11.5 5.72 11.85 5.63s12.62-5.88 12.84-5.72a10.08 10.08 0 0 1 1.38 2.12A5.1 5.1 0 0 1 46.8 34s-1.1-1-1.41-.94-.44.87-.44.87a19.24 19.24 0 0 1 2.41 1.87zm8.56 16a4 4 0 0 1-2.59.81 3.73 3.73 0 0 1-2.22-.81s.22-9.84.5-10.19c.11-.13 1.06.47 1.72.41s1.91-.22 1.91-.22.81 9.84.68 10.03zm-.34-13.06A2.09 2.09 0 0 1 53.2 41a2.46 2.46 0 0 1-2.2-2.14c-.13-.62.15-1.72 2.25-1.9a2.08 2.08 0 0 1 2.33 1.81zm-2.31-14.5c-.1 0-3.41-2-3.57-2s-1 .31-.84.43 3.5 2.07 3.5 2.07l-.91.53s-17.71-3.94-18-4-1.9.53-1.18 1.18.9-.09 4 .47S50 26 49.8 26.08s-3.44 1.53-3.44 1.53-3.78-2.37-4-2.37-.75.53-.75.53 4 2.12 3.78 2.22l-1.94.84-4.93-2.75s-1.16.5-1 .63 5.21 2.75 5 2.84l-2 .78s-3.84-2.66-4-2.69-.72.5-.72.6 3.85 2.31 3.66 2.5a9.75 9.75 0 0 1-1.87 1c-.19 0-3.5-2.94-3.6-2.94a6.33 6.33 0 0 0-.81.62l3.22 2.85a8.26 8.26 0 0 1-1.56.72c-.1-.1-3.07-2.1-3.16-2.1s-.88.47-.81.57a27.27 27.27 0 0 1 2.78 2.21 14.86 14.86 0 0 1-1.44.63S9.55 23.52 9.27 23c-.09-.16 22.87-10.78 23.47-10.66s22.71 10.71 22.53 10.9a14.31 14.31 0 0 1-2 1zm-.85 19.93c-.12.32-.25 6.22-.18 6.41s.62.09.81-.06 0-6.38 0-6.38-.51-.26-.63.03zm1.63 1.32c-.13.28-.13 5.37-.1 5.56s.47.09.82 0-.1-5.53-.1-5.53-.55-.19-.62-.03z"/>
</svg>
