<svg viewBox="0 0 64 64" xmlns="http://www.w3.org/2000/svg"><path d="m9.82 52c-.3-.16-2.89 2.69-3 2.84a4.4 4.4 0 0 0 .71.81 21.25 21.25 0 0 0 2.89-3.1c.06-.31-.29-.41-.6-.55zm.41-1.78c.2-.36-.15-.41-.51-.51s-3.2 2.54-3.2 2.54c-.15.36.46 1.17.46 1.17s3.02-2.86 3.25-3.21zm7.51 4.67c-.1.2-1.52 4-1.52 4.22s.36.15.71.15 1.68-3.66 1.68-3.91-.68-.84-.87-.47zm-4-40.07c.21 0 .46-.2.51-.5a31.28 31.28 0 0 0 -4-4.63c-.36-.15-.86.56-.56.82s3.84 4.25 4.04 4.3zm2.34 39.72c0 .25-1.88 4.21-1.73 4.57a.55.55 0 0 0 .56.3s1.88-4.21 1.83-4.42-.67-.69-.67-.46zm25.14 2.18a29.35 29.35 0 0 0 1.88 4.37c.1.15.71 0 1-.26s-1.83-4.21-2-4.37-.83.04-.89.25zm-25.29-43c.25-.26-3.46-5.49-3.66-5.69s-1.25.24-1.12.61c.21.56 4 5.58 4 5.58a3.8 3.8 0 0 0 .77-.52zm34.21-.72a46.24 46.24 0 0 0 4.52-5.79c0-.26-.2-.41-.56-.51s-4.46 5.38-4.51 5.53c0 .04.35.77.55.77zm-21.88-5.7c.2-.21-1-4-1.22-4.32s-.81.1-1 .26c0 0 1.32 4.11 1.42 4.26s.59 0 .8-.2zm26.15 2.08c-.2-.05-3.5 4.21-3.66 4.37 0 0 0 .61.61.56s3.46-4 3.51-4.27a.73.73 0 0 0 -.46-.66zm-27.32-.66a26.41 26.41 0 0 0 -1.83-4.57c-.2-.25-.91.25-.91.25.15.46 1.77 4.52 1.77 4.52s.82 0 .97-.2zm16 47.68a28.83 28.83 0 0 0 1.37 3.66s.81 0 .91-.3a13.6 13.6 0 0 0 -1.47-3.56c-.26-.2-.81.2-.81.2zm9.34-5.12c-.15.35 3.3 4.67 3.3 4.67s.56-.31.51-.71a41.41 41.41 0 0 0 -3.1-4.63c-.14-.1-.71.67-.71.67zm4.57-17c-.61-.91-1.63-1.42-1.52-3.35s2.23-2 2.28-4.57-2.69-1.78-3.66-3 .72-1.88 1.38-3.86-.36-4.17-2.29-4.22-4.06 1.07-5 0-.05-1.62-1.16-4.31a3.56 3.56 0 0 0 -4.68-2.19c-1.11.46-3.4 2.59-4.62 2.49s-2-2.79-2.54-3.76a2.81 2.81 0 0 0 -3.5-.81c-1.22.66-3.5 3.91-4.72 4.47s-1.07-.56-2.59-1-2.8-.86-4.27.26-1.42 3.25-2.69 5.08-2.44 1-4.52.91-4.21 1.22-4.32 3.2 2.49 3.15 3.1 4.47-.25 1.62-2.59 2.69-2.48 1.54-2.59 2.64c-.15 1.52 2 3.35 2.64 4.16s.1 2.09-1.42 4-2.23 3.14-1.47 5 4.82 1.78 5.89 2.64-.36 6.5 2.18 7.27 5.84-.82 7 .05 1.78 5.94 4.27 5.68 3-3.91 4.46-3.75 2.54 4.47 4.83 4.16 4-4.62 4.72-5.13 4.88 1.88 6.6.87.82-4.88 1.27-5.29 3.1.82 5.39-1.37.1-5.74.25-6.5 4-2 4.67-4.06-.17-1.92-.78-2.84zm-1.07 2.72c-.61 1.38-4.16 1.93-4.52 3.66s1.53 4.37.1 5.74-3.7.35-4.92 1.52-.59 4.08-1.59 4.62-3.65-1.16-6.29-.45-2 4.26-3.81 4.36-1.37-3.4-4.72-3.5-3.86 3.71-4.88 3.4-1.37-4.11-3.4-5.43-5.79.81-6.86 0 .21-3.91-1.06-6-5.59-2.14-6.1-3.2 3.42-3.85 3.42-6.72-2.7-3.3-2.75-5.23c0-.94 4-2 4.78-3.5s.56-2.79-1.07-4.37-2.34-2.28-1.32-3.25 3.61-.1 4.93-.2a3.82 3.82 0 0 0 3.7-3.1c.41-2.28 1-3.91 2.08-4s3.05 2.44 5.18 1.88 3.91-4.47 5.79-4.72 3.1 3.81 4.47 4.21a6 6 0 0 0 4.57-1.12c1.22-.86 2.34-1.27 3.25-.71s.66 3.46 1.68 4.93a3 3 0 0 0 3.41 1.53c1.37-.3 3.46-1 3.91.1s-1.53 3.55-1.68 4.93 1.06 2.59 2.18 3.35 1.47.81 1.37 1.68-3.1 1.93-2.18 4.92 2.94 3.25 2.33 4.67zm-4.26 14.63c-.21-.1-.66.36-.66.36.1.5 3.75 5.18 3.75 5.18a.91.91 0 0 0 .51-.51c.1-.36-3.4-4.93-3.6-5.03zm-8.79-33.77a21.66 21.66 0 0 0 -16.5-2c-12.49 3.83-14.22 17.08-10.77 24.7s8.89 10.82 18.33 10.31a17.44 17.44 0 0 0 16.56-16.3c.5-8.28-2.18-13.76-7.62-16.71zm5.8 16.55a15.7 15.7 0 0 1 -14.9 14.67c-8.5.46-13.39-2.42-16.5-9.28s-1.55-18.8 9.72-22.21a19.54 19.54 0 0 1 14.85 1.78c4.87 2.63 7.29 7.63 6.83 15.04zm-27.84-7c.1-.26-.25-.82-.45-.82a2.92 2.92 0 0 0 -1.58 1.17c-.61.82-1.47 2.16-1.17 2.34s.76.51 1 .41.25-.82.81-1.63 1.29-1.22 1.39-1.47zm.1 3.6a2.23 2.23 0 0 0 -1.27 1.83c-.1.76 0 2.24.77 2.69s1.93-.2 2.13-1.93-.86-2.76-1.63-2.6zm22.7-.01c-.66.15-1.16 1.07-1.27 1.83s0 2.23.77 2.69 1.93-.2 2.13-1.93-.86-2.81-1.63-2.59zm.11-4.26c-.41 0-.61.61-.61.86a6.47 6.47 0 0 1 1.32.91c.35.41 1.16 1.58 1.32 1.68s.66-.41.71-.66-.56-.91-1.12-1.52-1.22-1.31-1.62-1.31zm-8.84 16.61a4.11 4.11 0 0 1 -2.44 1.32 2.68 2.68 0 0 1 -3-1.37c-.3 0-.91.46-.86.76s.71 1.78 3.4 1.73 3.86-1.73 3.81-1.88-.76-.61-.91-.56z" fill="#fff"/></svg>