<svg viewBox="0 0 64 64" xmlns="http://www.w3.org/2000/svg">
    <path d="M32.33 43.25c.12-.25-3.36-2.67-3.56-2.69s-.48.48-.39.57 3.6 2.5 3.69 2.52.14-.16.26-.4zm-3.24-5.77c-.12 0-.56.48-.51.57s4.12 3.47 4.22 3.47.12-.23.22-.45-3.8-3.57-3.93-3.59zm1.84-1.81c-.15 0-.45.56-.43.71a32.68 32.68 0 0 0 3.68 2.83c.17 0 .31-.34.31-.55a31.66 31.66 0 0 0-3.56-2.99zm1.54-2c-.16 0-.59.4-.44.57a27.46 27.46 0 0 0 3.31 2.38c.17-.08.25-.43.25-.57a25.89 25.89 0 0 0-3.12-2.35zm1.47-2.1c-.18-.06-.69.57-.59.69a29.1 29.1 0 0 0 3 2.47c.29 0 .31-.35.37-.6a16.26 16.26 0 0 0-2.78-2.53zm4-.14c.1-.21-1.75-1.75-2-1.75s-.61.55-.55.61a12.33 12.33 0 0 0 2.24 1.58c.24-.01.24-.21.37-.41zM25 13.74a8.43 8.43 0 0 0-2.67 2.79c-1.12 1.75-.93 3.75-.61 4s1 0 1.18-.08-.16-1.93.37-3.28 2.24-2.48 2.32-2.7-.41-.75-.59-.73zm29.24 29.75c-5.42-2.08-18-2.24-18-2.24s7.41-12 7.25-19.75-3.67-12-8-13.44-11.77-1.14-15.4 3.83-3.17 9.73-1.67 14.21 6.78 15.27 6.78 15.27A54.6 54.6 0 0 0 13 43.25c-4.24 1.3-9.29 3.38-8.39 6.55s12.74 6.89 25.82 6.89 22.72-1.63 26.43-4.85 2.8-6.27-2.62-8.35zm-32-13.32c-2.44-5.49-3.74-10.83-2.2-14.49s4.81-6.52 11-6.52 10.58 5.42 10.86 10.91-2.77 12.87-6.39 19.06-3.55 6.44-4 6.68-1.39.53-1.55.29-5.24-10.43-7.69-15.93zm2.82 16.23c-.81.37-2 1.33-.26 2s3.76.94 7.61.87 5-1.12 4.81-1.58a2.42 2.42 0 0 0-2-1.21 15.88 15.88 0 0 0-1.83-.24l.49-.71s7.76.57 9.47 1.33 1.88 1 1.31 1.61-7.37 2.1-13.14 2a45.3 45.3 0 0 1-11.35-1.68c-1.12-.31-1.81-1.14-.54-1.77a24.11 24.11 0 0 1 5-1.25 13.39 13.39 0 0 1 2.63-.28l.2.38a10 10 0 0 0-2.4.53zm3.22.51a2.78 2.78 0 0 0 2.26.9 3.57 3.57 0 0 0 2.36-.7s2.3.23 2.42.51-2.13 1.1-5.58.78-3.84-.72-3.86-.88a3.58 3.58 0 0 1 2.4-.61zm-7.74-1.14c-2.32.55-3.18 1.37-3.26 2s.47 1.28 3 1.95a47.42 47.42 0 0 0 15.49 1.49c7.58-.47 10.43-2.2 10.57-3.4s-2.48-1.86-5.09-2.2c-2.37-.32-7.09-.75-7.09-.75l.47-.68a41.19 41.19 0 0 1 7.94.26c3.91.57 8.11 1.2 8.71 3 .43 1.28-2.56 3.57-6.89 4.33a102.92 102.92 0 0 1-20.39.6 53.14 53.14 0 0 1-11.85-2.57c-1.06-.49-2.1-1.12-1.16-2s4.26-2.2 7.07-2.75a58.21 58.21 0 0 1 8.67-.82c.08.12.36.71.36.71a57.23 57.23 0 0 0-6.55.83zM44.34 55c-9.57 1-19.71.81-25.49-.47S9 52.39 7.18 50.8s-1.6-2.81.19-4.09 7.25-3.26 11.28-3.77 7.08-.63 7.08-.63.53.69.35.75a55.46 55.46 0 0 0-10.16 1.27c-4.2 1.14-6.44 2.42-6.66 3.8s1.51 2.81 6.13 4a67.9 67.9 0 0 0 15.43 1.51 87.86 87.86 0 0 0 15.68-1.3c4-.86 6.65-3.67 5.89-5.27s-4.34-3.15-11.45-3.59c-5.27-.33-5.86-.18-5.86-.18l.59-1a49.59 49.59 0 0 1 10.47.45c6.29.85 11.78 2.77 11.77 4.9-.02 2.69-4 6.35-13.57 7.35zm-9.77-36.7c-1.57-3.89-6.05-3.4-7.37-1.73-2.38 3-1.32 6.25 1.32 7.31 3.84 1.54 7.66-1.65 6.05-5.56zm-6.37-.74a3.11 3.11 0 0 1 5.07 1.2c1.11 2.69-1.52 4.88-4.16 3.83-1.82-.71-2.55-2.94-.91-5.01z"/>
</svg>
