<svg viewBox="0 0 64 64" xmlns="http://www.w3.org/2000/svg">
    <path d="M28.22 38.75c0 .18.12 3.41.12 3.41l3.07.06a18.06 18.06 0 0 0 .06-3.47 11.06 11.06 0 0 0-3.25 0zm2.51 2.66h-1.58v-1.92c.09-.06 1.52-.18 1.55 0s.3 1.89.03 1.92zm4.34-4.27c.25 0 .09-4.25 0-4.44a29.53 29.53 0 0 0-5.15 0 25.06 25.06 0 0 0 .19 4.3c.15.14 4.71.17 4.96.14zm-1-1.21h-2.95a12.87 12.87 0 0 1 .12-2.36s2.64-.06 2.7 0a12.46 12.46 0 0 1 .11 2.36zm4.37 9.21a39 39 0 0 0 0 5.51 15.31 15.31 0 0 0 2.45 0c.24-.06.15-5.45 0-5.58a7.36 7.36 0 0 0-2.47.07zm1.76 4.77a9 9 0 0 0-.9 0V46a2 2 0 0 1 .74 0 16.2 16.2 0 0 1 .14 3.91zm-7.67-11.32a23.46 23.46 0 0 0 0 3.66 25.31 25.31 0 0 0 3.5 0 16.68 16.68 0 0 0-.03-3.69 32.65 32.65 0 0 0-3.47.03zm2.6 2.76a11 11 0 0 1-1.74.06 11.34 11.34 0 0 1 0-2 4.38 4.38 0 0 1 1.77 0c-.03.05.22 1.85-.03 1.94zm2.17-2.94c0 .12 0 4.71.12 4.8a24.64 24.64 0 0 0 3.57.06c.25-.06.15-4.65.12-4.74a27 27 0 0 0-3.81-.12zm2.79 3.9h-1.74s-.09-2.76 0-2.91a11.75 11.75 0 0 1 1.77 0c.06.12-.03 2.91-.03 2.91zM13 47.61c-.13 0-.06 4.28-.06 4.28s4.61 0 4.68-.12-.1-4-.1-4.09-4.38-.09-4.52-.07zM16.62 51h-2.57v-2.2a24.58 24.58 0 0 1 2.57 0 11.47 11.47 0 0 1 0 2.2zm-9.88-3.29v4.71l4.59-.16a23 23 0 0 0-.12-4.58 34.29 34.29 0 0 0-4.47.03zm3.59 3.59l-2.57.1s-.06-2.73 0-2.76h2.39a12.79 12.79 0 0 1 .18 2.66zm7.16-5a23.68 23.68 0 0 0 0-4.21c0-.13-4.65-.16-4.65-.16s.09 4.43.16 4.56a27.73 27.73 0 0 0 4.49-.18zM13.77 43a12.47 12.47 0 0 1 2.79 0 14.7 14.7 0 0 1 0 2.58h-2.73a9.49 9.49 0 0 1-.06-2.58zm3.69-2.36a41.92 41.92 0 0 0 0-4.49c0-.1-4.65-.1-4.65-.1s.09 4.5.16 4.59 4.34.03 4.49 0zm-1-3.56a15.38 15.38 0 0 1 0 2.63 25.82 25.82 0 0 1-2.64 0c0-.09-.09-2.54-.09-2.63a19.13 19.13 0 0 1 2.71 0zm6.63 2s.25 4.81.31 5.09 3.29 0 3.54-.19a22.5 22.5 0 0 0 0-5 29.76 29.76 0 0 0-3.87.14zm3 3.88c-.19.06-1.8.06-1.8.06l-.09-3a6.57 6.57 0 0 1 1.91-.02 14.67 14.67 0 0 1-.03 3zm-15 3.25a20.22 20.22 0 0 0-.09-4.14 22.29 22.29 0 0 0-4.4.15 23.75 23.75 0 0 0 0 4.22 27.41 27.41 0 0 0 4.47-.19zm-3.58-3.09a16 16 0 0 1 2.51 0 8.91 8.91 0 0 1 0 2.36 14.73 14.73 0 0 1-2.57.09 8.2 8.2 0 0 1 .06-2.45zm16.12 2.64c-.06.18.12 5.45.19 5.57a6.83 6.83 0 0 0 2.51-.12c.28-.19.12-5.3.06-5.42s-2.68-.28-2.76-.03zm1.95 4.64c-.21 0-1 .13-1 0s-.19-3.69-.16-3.82a5 5 0 0 1 1.15 0c.01.17.23 3.82.01 3.82zM11 40.76c.06-.12 0-4.27-.06-4.49s-4.62.06-4.62.06c-.12.19-.12 4.43-.12 4.56a31 31 0 0 0 4.8-.13zm-1.13-3.62a19.67 19.67 0 0 1 0 2.66 15.09 15.09 0 0 1-2.58.2c-.09-.1-.09-2.79-.09-2.79a12.66 12.66 0 0 1 2.67-.07zm12.64-4.4s.1 4.8.19 5a20.3 20.3 0 0 0 4.53-.16 30.45 30.45 0 0 0-.1-4.77 20.35 20.35 0 0 0-4.62-.07zm3.79 3.93a20.06 20.06 0 0 1-2.61.16 27.87 27.87 0 0 1-.12-3.32 8 8 0 0 1 2.76-.06 16.4 16.4 0 0 1-.03 3.22zm20.05 4.87l-.15 5.61h4.52a53.38 53.38 0 0 0 .22-5.49s-4.46-.15-4.59-.12zm1.06 1.08a12.91 12.91 0 0 1 2.41 0 12.2 12.2 0 0 1-.15 3.6l-2.48-.09s.12-3.41.22-3.51zm5.73 4.13c-.09.09-.31 5.3-.25 5.42a35.39 35.39 0 0 0 4.16.16 37.69 37.69 0 0 0 0-5.21 27.5 27.5 0 0 0-3.91-.37zm3.1 4.55c-.15 0-2.48-.12-2.48-.12s.16-3.41.28-3.57a8 8 0 0 1 2.29.31 16.48 16.48 0 0 1-.09 3.38zm-3-9.64v3.79l3.85.31a27.59 27.59 0 0 0 .12-4c-.1 0-3.88-.1-3.98-.1zm3.07 2.89l-2.1-.13-.1-1.92 2.33.12a9.64 9.64 0 0 1-.14 1.93zm-9.73 3.93a24.17 24.17 0 0 0-.16 3.75c0 .25 4 0 4.13 0a17.17 17.17 0 0 0 .18-3.62 16.75 16.75 0 0 0-4.16-.13zm3.25 2.79l-2.48-.06a5.89 5.89 0 0 1 .22-1.64 5 5 0 0 1 2.3.06 5.52 5.52 0 0 1-.05 1.64zM30.57 22.16c-3.13 2.55-.77 5 1 5.4s4.24-1.27 3.78-3.35-3.11-3.4-4.78-2.05zm3.94 2.21C35 26 32.9 27 31.6 26.5s-2.61-2.26 0-3.81a2.53 2.53 0 0 1 2.91 1.68zM59.4 32.3H44.59v-.93a8.3 8.3 0 0 0 1.74-.25c.25-.15.4-1.42-2.76-4.77s-10.1-10.91-10.1-10.91 0-6.88-.1-7.07a36.61 36.61 0 0 0-6.1 0 11.7 11.7 0 0 0 .12 4.16c.25.24 4.84.06 4.84.06l.09 2.76s-3.75 3.47-5.92 5.95-8.28 10-8.22 10.26.93.25.93.25l.1 1.33c-.31-.06-13.8.28-14.88.28S3 34.69 3 35s.38 18.75.5 19.84 2.33.93 6.94.74 49.79-.15 50.13-.53.47-20 .47-20.73.04-2.02-1.64-2.02zM32.06 11.75l-3.59.09a12.48 12.48 0 0 1 0-2.45c.11-.16 3.62-.21 3.72.06a6 6 0 0 1-.13 2.3zM5.77 53.69c-.18-.09-.83-18-.83-18.23s14.19-.24 14.19-.24l.56 18.19s-13.69.37-13.92.28zm28.31-5.64a10.39 10.39 0 0 1 1.73 1 11.14 11.14 0 0 1 0 1.8S33.92 49 33.74 49s-.35.84-.25.9a23.43 23.43 0 0 1 2.29 2.1c0 .15.19 1 .06 1h-.49a18.69 18.69 0 0 0-1.74-1.89c-.15 0-.56.62-.43.8a15.27 15.27 0 0 1 1 1.24h-5.42s-.1-8.8.18-9a6.37 6.37 0 0 1 2.58-.09c0 .16-.16 8.22.06 8.22s.9.21.93.06-.16-8.28.09-8.34a14.53 14.53 0 0 1 3.16.43 16.08 16.08 0 0 1 0 3.47c-.18 0-1.33-.83-1.42-.83s-.34.93-.26.98zm8.24 4.68a29.92 29.92 0 0 1-5.24.12c0-.18 0-8.86-.21-9.17s-2.82-.62-4.19-.65a19.34 19.34 0 0 0-4.37.34c-.4.21-.59 1-.59 2.29s.06 7.63-.12 7.66-5.74 0-5.74 0-.93-21.27-.86-21.45 21.6-.16 21.7-.06-.19 20.8-.38 20.92zm-.68-22.66c-.09-.12-2.11-3.26-2.2-3.32s-1 .28-.93.47 2 2.91 1.83 2.91h-1.89a20.52 20.52 0 0 0-1.61-2.51c-.22-.06-1 .37-.87.5s1.49 2 1.27 2-15.66-.12-15.69-.4c-.05-.46 11.35-12.74 11.6-12.62s10.66 12.69 10.41 12.81a5.27 5.27 0 0 1-1.92.16zm17 23.31c-.37 0-14.23-.22-14.32-.25s.22-18.88.28-19.09 14.32.06 14.54.21-.08 19.1-.45 19.13zM37.15 32.89a22.43 22.43 0 0 0 .12 3.57 23.35 23.35 0 0 0 3.84.06 15.2 15.2 0 0 0-.11-3.75c-.17-.07-3.69-.15-3.85.12zm2.85 2.6h-1.8a11 11 0 0 1-.06-1.86h1.89a8.93 8.93 0 0 1-.03 1.86zm5.92-.12c-.13.12-.13 4.84-.13 5.08s4.69.16 5.06 0 .31-4.86.25-5a31.88 31.88 0 0 0-5.18-.08zM50 39.62l-3.16-.16.09-3.13c.19-.09 3.16 0 3.16 0zm3.13.83a32.57 32.57 0 0 0 4.31.16c.16-.06.28-5 .28-5h-4.77s.05 4.72.19 4.84zm.93-3.9h2.57a10.66 10.66 0 0 1-.12 2.88c-.15 0-2.45-.06-2.45-.06s-.06-2.64.01-2.82z"/>
</svg>
