<svg viewBox="0 0 64 64" xmlns="http://www.w3.org/2000/svg">
    <path d="M55 45.05a27 27 0 0 0 3.36-11.81c.42-7.13-1.42-15-6.72-19.78s-12.34-9.63-21-9.23c-12.52.57-21.7 8.34-24.7 14.64S1 33.51 6 44.11 18.7 59.8 30.24 59.8a29.78 29.78 0 0 0 19.1-7.19s3.94 4.51 4.51 4.67 7-4.15 7.19-5.25S55 45.05 55 45.05zM23.12 7.91a26.16 26.16 0 0 0-5.33 7.73 45.89 45.89 0 0 1-5.24-1.52 25.23 25.23 0 0 1 10.57-6.21zM5.21 30.62a25.72 25.72 0 0 1 5.92-15c1 .35 3.16 1 5.94 1.7-.3.8-.59 1.62-.84 2.5a36 36 0 0 0-1.55 11.61c-4.29 0-7.78-.11-9.47-.14 0-.2-.01-.44 0-.67zm6.15 18.22a34.13 34.13 0 0 1-6-15.54h9.52a38.27 38.27 0 0 0 3.39 11.35c.18.4.37.78.56 1.17a22 22 0 0 0-7.47 3.02zm6 5.55a16.58 16.58 0 0 1-4.49-3.7 25.67 25.67 0 0 1 7.05-2.8 46.22 46.22 0 0 0 7.32 9.47 27.59 27.59 0 0 1-9.91-2.97zm4.3-6.89a42.57 42.57 0 0 1 7.58-.75c0 4.71 0 8 .1 9.86a39 39 0 0 1-7.71-9.11zm7.74-11.13c-.08 3.09-.13 5.85-.15 8.3a49.75 49.75 0 0 0-8.72.76C18 40.53 16.71 37 16.44 33.27h13.01c-.02 1-.05 2.05-.08 3.1zm.11-4.83c-4.4 0-9 0-13.1-.05a31.4 31.4 0 0 1 .32-4.17 47.37 47.37 0 0 1 2.4-9.48 72 72 0 0 0 10.5 1.53c-.04 3.76-.07 7.96-.15 12.17zM19.8 16.07a20 20 0 0 1 3.3-5.65c1.31-1.42 2.56-2.55 3.49-3.37.95-.18 1.93-.33 3-.44 0 1.89.05 5.74.05 10.54a61.75 61.75 0 0 1-9.84-1.08zM56 38.44a21.89 21.89 0 0 1-2.06 5.14l-1.35-1.52s1.79-1.94 2.57-3A2.85 2.85 0 0 0 54 35.19c-.42-.25-2-1.12-4-2.24l6.5-.11a26.15 26.15 0 0 1-.5 5.6zm-3.3-20.62c2.57 3.81 3.6 8.69 3.83 12.94-1.32.07-4.69.24-9.66.42l-1.6-.88a47.27 47.27 0 0 0-2.17-11.7c-.09-.26-.19-.53-.29-.79a42.94 42.94 0 0 0 7.34-3 20.73 20.73 0 0 1 2.5 3.01zm-4-4.36A28 28 0 0 1 42 16a33.82 33.82 0 0 0-6.85-9.2 31.38 31.38 0 0 1 13.48 6.66zm-16.45-7c.42.4 1.6 1.57 4.2 4.48a24.1 24.1 0 0 1 3.69 5.44 43.77 43.77 0 0 1-8.5.8c0-4.88 0-8.83-.06-10.71.15 0 .42-.02.6-.01zm-.6 16.6v-3.61A35.62 35.62 0 0 0 41 18.33a56 56 0 0 1 2 6.41 20.47 20.47 0 0 1 .61 4.68c-2.85-1.54-5.37-2.85-6.12-3.1-1.89-.63-2.94-.05-3 1.57a17.47 17.47 0 0 0 .53 3.6h-3.49c.01-3.27.05-6.25.05-8.43zm-.2 10.14h3.9c.62 2.62 1.47 5.69 2.29 8.17.49 1.49 1 2.87 1.42 4.06a59.71 59.71 0 0 0-7.88-.69c.09-3.74.19-7.81.27-11.54zm-.63 24.34c.05-1.72.17-5.85.3-10.79a49.78 49.78 0 0 1 8.84 1 69.91 69.91 0 0 1-7.29 9.73c-.62.02-1.24.05-1.85.06zm14.47-4.36A24.2 24.2 0 0 0 43 50.65c-.2 0-.94.36-.75.59s1.57 1.93 2.14 2.52l-.79.45a13.16 13.16 0 0 0-2.21-2.14c-.32 0-.71.24-.63.47a20.53 20.53 0 0 0 1.92 2.18 26.5 26.5 0 0 1-7 2.34 46.82 46.82 0 0 0 5.27-7.7c.18.21.34.32.48.31a12.86 12.86 0 0 0 2.49-1 31.83 31.83 0 0 1 3.91 1.46l.45.65a25.08 25.08 0 0 1-2.99 2.4zM53.93 55c-.21-.06-7-10-7.26-10s-4.33 2.79-4.54 2.73S38.78 38.32 38 36s-1.86-6.34-2-6.76-.24-1.39.11-1.47 5.63 2.83 8.72 4.62 8.62 4.43 8.66 5a1.74 1.74 0 0 1-.31 1.16c-.12.14-3.19 3-3.07 3.35s8.71 9.46 8.65 9.68A37.53 37.53 0 0 1 53.93 55zm-.55-26.78s.61-.18.71-.37a58.83 58.83 0 0 0-5.23-5.65c-.22 0-.6.78-.54.84zm-42.7-9.82c-.2 0-.26.28-1.3 1.71a19.09 19.09 0 0 0-2 3.76 6.89 6.89 0 0 0 1.08.39s.35-.8 1-2.34a17.9 17.9 0 0 1 2-3.09c.07-.13-.58-.47-.78-.43zm40.71 10.53s.61-.18.71-.38a38.56 38.56 0 0 0-4.31-4.48c-.21 0-.59.78-.53.84zm.61-8.44s.61-.18.71-.38a12.43 12.43 0 0 0-2.5-2.46c-.21 0-.59.79-.53.85S52 20.49 52 20.49zm1.15 4.29s.61-.18.7-.38a38.56 38.56 0 0 0-4.31-4.48c-.21 0-.59.78-.53.84zm-19.21 14.3c-.16 0-.62.58-.61.65a29.53 29.53 0 0 0 2.3 2.27s.51-.36.49-.42a24.93 24.93 0 0 0-2.18-2.5zM44.8 49.45a2.06 2.06 0 0 0-.73.67 6.48 6.48 0 0 0 1.54 1.16c.2 0 .41-.33.51-.47s-1.2-1.36-1.32-1.36zm-7.22-18.22a39.23 39.23 0 0 0 1.42 3.7c.1.1.76-.24.86-.39a24.16 24.16 0 0 0-1.33-3.64c-.12-.14-.93.19-.95.33zm2.3 22.12c-.12 0-.75.57-.73.67a6.48 6.48 0 0 0 1.54 1.16c.2 0 .41-.34.51-.47s-1.2-1.36-1.32-1.36zm9-23.75s.61-.18.7-.38a12.43 12.43 0 0 0-2.5-2.46c-.21 0-.59.79-.53.85s2.37 1.99 2.37 1.99zm6.37 22.47c.14.08.47-.18.59-.49s-2.4-3.07-2.54-3.09-.63.61-.63.61a30 30 0 0 0 2.62 2.97zm-1.42.93c.14.07.48-.18.6-.5s-2.43-3.11-2.54-3.13-.63.61-.63.61A30.29 30.29 0 0 0 53.83 53zm-18.89-4.67c-.09 0-.45.53-.45.53a11.1 11.1 0 0 0 1.79 1.5c.18.06.42-.42.45-.55a8.5 8.5 0 0 0-1.79-1.48zm5.81-22.53a45 45 0 0 0-3.9-4.37 1.21 1.21 0 0 0-.59.39c0 .14 3.94 4.39 3.94 4.39s.49-.21.55-.41zM40 23.08c.1.06.43-.25.45-.57s-1.83-2-2-2-.73.35-.61.49 2.1 2 2.16 2.08zm-6.69 26.86c-.1 0-.45.54-.45.54a24 24 0 0 0 2.56 2.18c.17.06.41-.41.45-.55a18.36 18.36 0 0 0-2.56-2.17zm3.19-24.83c.18.1.81-.53.84-.65a15.91 15.91 0 0 0-2.06-2.14c-.14 0-.63.41-.61.51a19 19 0 0 0 1.83 2.28zm-3.6 15.31c-.1 0-.67.63-.67.63s2.32 2.44 2.38 2.44a2.06 2.06 0 0 0 .59-.59 22.38 22.38 0 0 0-2.3-2.48zM32.09 52c-.1 0-.45.53-.45.53a23 23 0 0 0 2.56 2.19c.17.06.41-.42.45-.55A17.7 17.7 0 0 0 32.09 52z"/>
</svg>
